<?xml version="1.0" encoding="UTF-8"?>
<svg id="Layer_1" data-name="Layer 1" xmlns="http://www.w3.org/2000/svg" viewBox="0 0 2994.19 336.44">
  <defs>
    <style>
      .cls-1 {
        fill: #372aac;
      }
    </style>
  </defs>
  <g>
    <path class="cls-1" d="M163.14,336.44c-32.97,0-61.7-6.01-86.19-18.02s-43.44-28.72-56.84-50.14C6.7,246.86,0,222.14,0,194.1s4.92-53.91,14.79-77.64c9.86-23.72,23.8-44.29,41.82-61.7,18.02-17.4,39.74-30.88,65.16-40.44C147.19,4.78,175.15,0,205.65,0c32.35,0,60.23,5.08,83.65,15.25,23.41,10.17,42.52,24.96,57.31,44.37l-66.09,52.22c-10.17-13.55-21.72-22.95-34.66-28.19-12.94-5.24-27.73-7.86-44.37-7.86s-31.66,2.77-45.06,8.32c-13.4,5.55-24.88,13.4-34.43,23.57-9.55,10.17-16.87,22.11-21.95,35.82-5.08,13.71-7.62,28.58-7.62,44.6,0,14.49,3.23,27.19,9.7,38.13,6.47,10.94,15.86,19.41,28.19,25.42,12.32,6.01,27.27,9.01,44.83,9.01,14.17,0,27.88-2.38,41.13-7.16,13.24-4.77,26.34-12.4,39.28-22.88l35.12,67.01c-16.95,12.33-36.36,21.88-58.23,28.65-21.88,6.77-44.99,10.17-69.32,10.17ZM212.12,283.75l24.49-122.47h80.88l-26.8,136.33-78.56-13.86Z"/>
    <path class="cls-1" d="M341.98,329.97L406.68,6.47h138.18c41.28,0,73.32,9.09,96.13,27.27,22.8,18.18,34.2,43.44,34.2,75.79,0,27.11-6.55,50.76-19.64,70.94-13.1,20.18-31.58,35.82-55.46,46.91-23.88,11.09-52.3,16.64-85.27,16.64h-104.44l48.52-39.28-25.42,125.24h-91.5ZM456.59,215.82l-32.35-42.98h95.2c20.02,0,35.51-4.62,46.45-13.86,10.93-9.24,16.41-22.8,16.41-40.67,0-13.86-4.39-23.95-13.17-30.27-8.78-6.31-21.34-9.47-37.66-9.47h-87.81l48.99-43.44-36.05,180.7ZM545.32,329.97l-66.55-117.85h94.74l67.47,117.85h-95.66Z"/>
    <path class="cls-1" d="M645.14,329.97L852.64,6.47h90.12l78.56,323.5h-91.5l-57.77-280.06h35.58l-165.45,280.06h-97.05ZM735.72,266.66l36.97-67.01h157.59l10.63,67.01h-205.19Z"/>
    <path class="cls-1" d="M1219.58,336.44c-32.97,0-61.78-6.01-86.42-18.02-24.65-12.02-43.6-28.72-56.84-50.14-13.25-21.41-19.87-46.13-19.87-74.17s4.92-53.91,14.79-77.64c9.86-23.72,23.72-44.29,41.59-61.7,17.86-17.4,39.2-30.88,64.01-40.44,24.8-9.55,52.29-14.33,82.49-14.33s56.38,5.24,79.49,15.71c23.11,10.48,40.36,25.58,51.76,45.29l-65.62,52.68c-7.7-12.32-17.49-21.72-29.35-28.19-11.86-6.47-25.96-9.7-42.29-9.7s-29.97,2.77-42.75,8.32c-12.79,5.55-23.8,13.4-33.04,23.57-9.24,10.17-16.33,22.11-21.26,35.82-4.93,13.71-7.39,28.58-7.39,44.6,0,14.49,3.16,27.19,9.47,38.13,6.31,10.94,15.4,19.41,27.27,25.42,11.86,6.01,25.95,9.01,42.29,9.01,14.48,0,28.42-3,41.82-9.01,13.4-6.01,25.8-15.48,37.2-28.42l54.07,53.15c-18.18,21.88-39.13,37.36-62.85,46.45-23.73,9.08-49.91,13.63-78.56,13.63Z"/>
    <path class="cls-1" d="M1488.08,258.8h169.61l-14.33,71.17h-259.72L1448.34,6.47h253.25l-14.33,71.17h-162.67l-36.51,181.16ZM1507.03,131.71h150.2l-13.4,67.94h-150.2l13.4-67.94Z"/>
  </g>
  <g>
    <path d="M1826.37,334.59c-16.64,0-32.97-1.62-48.99-4.85-16.02-3.23-30.58-7.78-43.67-13.63-13.1-5.85-23.96-12.32-32.58-19.41l25.42-47.6c9.24,7.71,19.48,14.17,30.73,19.41,11.24,5.24,23.26,9.24,36.05,12.02,12.78,2.77,25.65,4.16,38.59,4.16,15.71,0,29.42-1.85,41.13-5.55,11.71-3.7,20.72-8.93,27.04-15.71,6.31-6.77,9.47-14.94,9.47-24.49,0-8.62-3-15.63-9.01-21.03-6.01-5.39-13.79-9.86-23.34-13.4-9.55-3.54-20.1-6.85-31.66-9.94-11.55-3.08-23.11-6.77-34.66-11.09-11.55-4.31-22.18-9.63-31.89-15.94-9.71-6.31-17.56-14.33-23.57-24.03s-9.01-22.25-9.01-37.66c0-20.95,6.01-39.2,18.02-54.76,12.02-15.55,28.49-27.65,49.45-36.28,20.95-8.62,45.44-12.94,73.48-12.94,20.95,0,40.82,2.31,59.62,6.93,18.79,4.62,34.96,11.4,48.52,20.33l-23.57,47.6c-12.02-8.32-25.65-14.56-40.9-18.72s-30.89-6.24-46.91-6.24-30.27,2.01-41.82,6.01c-11.55,4.01-20.49,9.55-26.8,16.64-6.32,7.09-9.47,15.41-9.47,24.96,0,8.94,2.92,16.18,8.78,21.72,5.85,5.55,13.63,10.17,23.34,13.86,9.71,3.7,20.33,7.16,31.89,10.4s23.11,6.78,34.66,10.63c11.55,3.86,22.18,8.86,31.89,15.02,9.71,6.17,17.56,13.86,23.57,23.11,6.01,9.24,9.01,21.11,9.01,35.58,0,21.26-5.94,39.82-17.79,55.69-11.86,15.87-28.5,28.04-49.91,36.51-21.42,8.47-46.45,12.71-75.1,12.71Z"/>
    <path d="M2172.51,334.59c-32.35,0-60.08-5.78-83.19-17.33-23.11-11.55-40.75-27.73-52.92-48.53-12.17-20.8-18.25-44.9-18.25-72.33s4.62-52.45,13.86-76.02c9.24-23.57,22.65-44.29,40.21-62.16,17.56-17.87,38.43-31.73,62.62-41.59,24.18-9.86,51.22-14.79,81.11-14.79,32.65,0,60.61,5.78,83.88,17.33,23.26,11.55,40.97,27.73,53.15,48.53,12.17,20.8,18.25,44.91,18.25,72.33s-4.78,52.45-14.33,76.02c-9.55,23.57-23.04,44.29-40.44,62.16-17.41,17.87-38.29,31.74-62.62,41.59-24.34,9.86-51.46,14.79-81.34,14.79ZM2178.06,281.91c20.33,0,38.66-3.62,55-10.86,16.33-7.24,30.27-17.25,41.82-30.04,11.55-12.78,20.33-27.5,26.34-44.13,6.01-16.64,9.01-34.35,9.01-53.15,0-17.56-3.78-33.12-11.32-46.68-7.55-13.55-18.72-24.03-33.5-31.43-14.79-7.39-32.97-11.09-54.53-11.09-20.03,0-38.29,3.62-54.76,10.86-16.49,7.24-30.5,17.26-42.05,30.04-11.55,12.79-20.41,27.5-26.57,44.13-6.17,16.64-9.24,34.36-9.24,53.15,0,17.56,3.85,33.12,11.55,46.68,7.7,13.56,18.95,24.03,33.74,31.43,14.79,7.39,32.96,11.09,54.53,11.09Z"/>
    <path d="M2460.42,329.97h-60.08L2465.04,6.47h236.16l-10.17,50.83h-176.08l-54.53,272.66ZM2490.46,155.74h161.29l-10.17,49.91h-161.29l10.17-49.91Z"/>
    <path d="M2762.66,329.97l54.07-272.66h-107.22l10.63-50.83h274.05l-10.17,50.83h-107.22l-54.53,272.66h-59.62Z"/>
  </g>
</svg>