<?xml version="1.0" encoding="UTF-8"?>
<svg id="Layer_1" data-name="Layer 1" xmlns="http://www.w3.org/2000/svg" viewBox="0 0 905.98 398.1">
  <defs>
    <style>
      .cls-1 {
        fill: #372aac;
      }
    </style>
  </defs>
  <path class="cls-1" d="M262.46,398.1c-53.05,0-99.26-7.11-138.67-21.32-39.41-14.22-69.89-33.99-91.45-59.33C10.78,292.11,0,262.85,0,229.68s7.93-63.79,23.79-91.87c15.86-28.07,38.29-52.4,67.29-73,29-20.59,63.94-36.54,104.84-47.85C236.81,5.66,281.8,0,330.87,0c52.05,0,96.9,6.02,134.58,18.05,37.66,12.03,68.4,29.53,92.2,52.5l-106.32,61.8c-16.36-16.04-34.95-27.15-55.77-33.36-20.82-6.19-44.61-9.3-71.37-9.3s-50.93,3.28-72.49,9.84c-21.56,6.56-40.03,15.86-55.39,27.89-15.37,12.03-27.14,26.16-35.32,42.38-8.18,16.22-12.27,33.82-12.27,52.77,0,17.14,5.21,32.18,15.61,45.11,10.41,12.95,25.53,22.97,45.36,30.08,19.82,7.11,43.87,10.67,72.12,10.67,22.79,0,44.85-2.82,66.17-8.48,21.31-5.65,42.38-14.67,63.2-27.07l56.51,79.29c-27.27,14.59-58.49,25.89-93.69,33.9-35.2,8.02-72.38,12.03-111.53,12.03ZM341.28,335.76l39.41-144.91h130.11l-43.12,161.32-126.4-16.41Z"/>
  <path d="M705.84,395.92c-19.68,0-39.01-1.92-57.96-5.74-18.96-3.83-36.19-9.2-51.68-16.13-15.5-6.92-28.35-14.57-38.55-22.97l30.08-56.33c10.94,9.12,23.05,16.77,36.36,22.97,13.31,6.2,27.52,10.94,42.66,14.22,15.12,3.28,30.35,4.92,45.66,4.92,18.59,0,34.81-2.19,48.67-6.56,13.85-4.38,24.51-10.57,31.99-18.59,7.47-8.01,11.21-17.68,11.21-28.98,0-10.2-3.55-18.5-10.66-24.88-7.11-6.37-16.32-11.66-27.62-15.86-11.3-4.19-23.79-8.11-37.46-11.76-13.67-3.64-27.34-8.01-41.02-13.12-13.67-5.1-26.25-11.39-37.73-18.87-11.49-7.47-20.78-16.95-27.89-28.43-7.11-11.49-10.67-26.33-10.67-44.57,0-24.79,7.11-46.39,21.33-64.8,14.22-18.41,33.72-32.72,58.51-42.93,24.79-10.2,53.77-15.31,86.95-15.31,24.79,0,48.3,2.74,70.54,8.2,22.23,5.47,41.37,13.49,57.42,24.06l-27.89,56.33c-14.22-9.84-30.35-17.23-48.4-22.15-18.05-4.92-36.56-7.38-55.51-7.38s-35.82,2.38-49.49,7.11c-13.67,4.74-24.25,11.31-31.72,19.69-7.48,8.39-11.21,18.23-11.21,29.53,0,10.58,3.46,19.14,10.39,25.7,6.92,6.56,16.13,12.03,27.61,16.41,11.49,4.37,24.06,8.47,37.73,12.3,13.67,3.83,27.34,8.03,41.01,12.58,13.67,4.56,26.25,10.48,37.73,17.77,11.49,7.3,20.78,16.41,27.89,27.34,7.11,10.94,10.66,24.98,10.66,42.11,0,25.16-7.02,47.12-21.05,65.89-14.04,18.78-33.73,33.18-59.06,43.2-25.34,10.02-54.96,15.04-88.86,15.04Z"/>
</svg>